<svg width="165" height="165" viewBox="0 0 165 165" fill="none" xmlns="http://www.w3.org/2000/svg">
<circle cx="82.5" cy="82.5" r="82" fill="#FAFAFA" stroke="black"/>
<path fill-rule="evenodd" clip-rule="evenodd" d="M71.875 63.9062V55.0521C71.875 54.5824 72.0616 54.132 72.3937 53.7999C72.7258 53.4678 73.1762 53.2812 73.6458 53.2812C74.1155 53.2812 74.5659 53.4678 74.898 53.7999C75.2301 54.132 75.4167 54.5824 75.4167 55.0521V63.9062C75.4167 64.3759 75.2301 64.8263 74.898 65.1584C74.5659 65.4905 74.1155 65.6771 73.6458 65.6771C73.1762 65.6771 72.7258 65.4905 72.3937 65.1584C72.0616 64.8263 71.875 64.3759 71.875 63.9062Z" fill="#757575"/>
<path fill-rule="evenodd" clip-rule="evenodd" d="M80.7292 60.3647V54.1668C80.7292 53.6972 80.9157 53.2468 81.2478 52.9147C81.5799 52.5826 82.0303 52.396 82.5 52.396C82.9697 52.396 83.4201 52.5826 83.7522 52.9147C84.0843 53.2468 84.2708 53.6972 84.2708 54.1668V60.3647C84.2708 60.8344 84.0843 61.2848 83.7522 61.6169C83.4201 61.949 82.9697 62.1356 82.5 62.1356C82.0303 62.1356 81.5799 61.949 81.2478 61.6169C80.9157 61.2848 80.7292 60.8344 80.7292 60.3647Z" fill="#757575"/>
<path fill-rule="evenodd" clip-rule="evenodd" d="M89.5833 63.9061V55.9373C89.5833 55.4677 89.7699 55.0173 90.102 54.6852C90.4341 54.3531 90.8845 54.1665 91.3542 54.1665C91.8238 54.1665 92.2742 54.3531 92.6063 54.6852C92.9384 55.0173 93.125 55.4677 93.125 55.9373V63.9061C93.125 64.3757 92.9384 64.8262 92.6063 65.1583C92.2742 65.4904 91.8238 65.6769 91.3542 65.6769C90.8845 65.6769 90.4341 65.4904 90.102 65.1583C89.7699 64.8262 89.5833 64.3757 89.5833 63.9061Z" fill="#757575"/>
<path fill-rule="evenodd" clip-rule="evenodd" d="M69.5818 70.8356C69.7826 70.717 70.0048 70.6392 70.2358 70.6066C70.4667 70.5741 70.7018 70.5876 70.9276 70.6462C74.039 71.4537 78.2341 71.8751 82.5 71.8751C86.7659 71.8751 90.961 71.4537 94.0706 70.6462C94.2964 70.5877 94.5316 70.5744 94.7626 70.607C94.9935 70.6397 95.2158 70.7177 95.4165 70.8365C95.6173 70.9553 95.7926 71.1126 95.9324 71.2993C96.0721 71.4861 96.1736 71.6986 96.231 71.9247C96.7607 74.0153 96.806 76.1992 96.3636 78.31C95.9212 80.4207 95.0027 82.4026 93.6782 84.1046C92.3536 85.8066 90.658 87.1836 88.7205 88.1309C86.783 89.0781 84.6549 89.5705 82.4982 89.5705C80.3416 89.5705 78.2134 89.0781 76.2759 88.1309C74.3385 87.1836 72.6428 85.8066 71.3183 84.1046C69.9937 82.4026 69.0753 80.4207 68.6328 78.31C68.1904 76.1992 68.2358 74.0153 68.7654 71.9247C68.8229 71.6983 68.9247 71.4855 69.0648 71.2986C69.2049 71.1117 69.3806 70.9544 69.5818 70.8356ZM71.914 74.4977C71.788 75.9642 71.9682 77.4409 72.443 78.8342C72.9178 80.2274 73.6769 81.5068 74.6722 82.5912C75.6675 83.6756 76.8772 84.5414 78.2247 85.1337C79.5722 85.7259 81.0281 86.0318 82.5 86.0318C83.9719 86.0318 85.4278 85.7259 86.7753 85.1337C88.1228 84.5414 89.3325 83.6756 90.3278 82.5912C91.3231 81.5068 92.0822 80.2274 92.557 78.8342C93.0318 77.4409 93.212 75.9642 93.086 74.4977C89.9251 75.1157 86.1886 75.4168 82.5 75.4168C78.8114 75.4168 75.0749 75.1157 71.914 74.496V74.4977Z" fill="#757575"/>
<path fill-rule="evenodd" clip-rule="evenodd" d="M70.0156 62.9394C69.7164 64.2551 69.7766 65.3194 70.0068 65.9817C70.083 66.2014 70.1153 66.4341 70.1017 66.6663C70.088 66.8985 70.0288 67.1258 69.9273 67.3351C69.8259 67.5444 69.6842 67.7317 69.5104 67.8863C69.3365 68.0408 69.1339 68.1597 68.9142 68.2359C68.6944 68.3122 68.4618 68.3445 68.2296 68.3308C67.9973 68.3172 67.7701 68.258 67.5607 68.1565C67.3514 68.0551 67.1641 67.9134 67.0096 67.7395C66.855 67.5657 66.7362 67.3631 66.6599 67.1433C66.1481 65.67 66.1658 63.8939 66.5643 62.1531C67.018 60.2286 67.8591 58.4168 69.0364 56.8282C71.5616 53.3946 75.8417 50.625 81.9156 50.625C88.0781 50.625 92.6823 53.1538 95.5068 56.4741C98.2551 59.7058 99.4451 63.8832 98.3436 67.1309C98.2711 67.3538 98.1551 67.5601 98.0023 67.7378C97.8494 67.9155 97.6628 68.061 97.4533 68.1661C97.2438 68.2711 97.0155 68.3335 96.7817 68.3497C96.5479 68.3658 96.3132 68.3354 96.0912 68.2601C95.8693 68.1849 95.6644 68.0664 95.4886 67.9114C95.3128 67.7564 95.1695 67.568 95.0671 67.3572C94.9646 67.1464 94.905 66.9174 94.8917 66.6834C94.8784 66.4494 94.9117 66.2151 94.9897 65.9941C95.5687 64.287 95.0304 61.381 92.808 58.7691C90.6635 56.2439 87.0475 54.1667 81.9156 54.1667C77.0387 54.1667 73.7875 56.3448 71.8892 58.9267C70.9994 60.1236 70.362 61.4888 70.0156 62.9394Z" fill="#757575"/>
<path fill-rule="evenodd" clip-rule="evenodd" d="M66.6528 63.021H68.3333V66.1784L68.344 66.1926L68.3333 66.1996V66.5627H67.8871C66.5289 67.7261 66.5554 68.3211 66.566 68.3831C66.5891 68.5247 66.86 69.1091 68.452 69.8139C71.4394 71.135 76.851 71.8752 82.5 71.8752C88.149 71.8752 93.5606 71.135 96.548 69.8139C98.14 69.1091 98.4109 68.5247 98.434 68.3831C98.4446 68.3211 98.4694 67.7279 97.1129 66.5627H96.6667V66.1996L96.656 66.1926L96.6667 66.1784V63.021H98.3472L98.8253 63.3929C100.816 64.9335 102.277 66.8035 101.93 68.948C101.595 71.0198 99.7231 72.2807 97.9806 73.051C94.3008 74.6802 88.28 75.4168 82.5 75.4168C76.72 75.4168 70.7009 74.6819 67.0194 73.051C65.2769 72.2807 63.4051 71.0198 63.0704 68.948C62.7233 66.8035 64.1843 64.9335 66.1747 63.3911L66.6528 63.021Z" fill="#757575"/>
<path fill-rule="evenodd" clip-rule="evenodd" d="M94.8958 101.979H70.1042V94.8021C66.3606 95.7052 62.6968 96.9395 59.766 98.4305C57.7526 99.4541 56.2598 100.51 55.3142 101.519C54.3845 102.511 54.1667 103.242 54.1667 103.75V110.833H110.833V103.75C110.833 103.242 110.616 102.511 109.686 101.519C108.74 100.51 107.247 99.4541 105.234 98.4305C102.303 96.9395 98.6394 95.7035 94.8958 94.8003V101.979ZM94.8958 91.163C93.7216 90.8955 92.5406 90.6581 91.3542 90.4512V98.4376H73.6458V90.4512C72.4806 90.6548 71.2942 90.8921 70.1042 91.163C60.4655 93.3642 50.625 97.7647 50.625 103.75V114.375H114.375V103.75C114.375 97.7647 104.534 93.3642 94.8958 91.163Z" fill="#757575"/>
<path fill-rule="evenodd" clip-rule="evenodd" d="M63.0208 110.833V94.896H66.5625V110.833H63.0208Z" fill="#757575"/>
<path fill-rule="evenodd" clip-rule="evenodd" d="M100.208 110.833V94.896H103.75V110.833H100.208Z" fill="#757575"/>
</svg>
