<svg width="165" height="165" viewBox="0 0 165 165" fill="none" xmlns="http://www.w3.org/2000/svg">
<circle cx="82.5" cy="82.5" r="82" fill="black" stroke="white"/>
<path d="M107.815 60.0023L60.0026 107.815C59.6289 108.188 59.1222 108.398 58.5938 108.398C58.0654 108.398 57.5586 108.188 57.185 107.815C56.8113 107.441 56.6014 106.934 56.6014 106.406C56.6014 105.878 56.8113 105.371 57.185 104.997L104.997 57.1847C105.371 56.8111 105.878 56.6012 106.406 56.6012C106.935 56.6012 107.441 56.8111 107.815 57.1847C108.189 57.5584 108.399 58.0651 108.399 58.5935C108.399 59.1219 108.189 59.6287 107.815 60.0023ZM57.252 73.2169C55.4006 71.3697 54.2472 68.9376 53.9882 66.3352C53.7293 63.7328 54.3809 61.1212 55.832 58.9454C57.2831 56.7697 59.4438 55.1645 61.9459 54.4035C64.448 53.6426 67.1366 53.7729 69.5534 54.7724C71.9701 55.7718 73.9655 57.5785 75.1993 59.8844C76.4331 62.1903 76.829 64.8528 76.3195 67.4179C75.8101 69.9831 74.4267 72.2921 72.4053 73.9515C70.384 75.6109 67.8496 76.5179 65.2344 76.5179C63.7517 76.5227 62.2828 76.2333 60.9126 75.6667C59.5425 75.1001 58.2983 74.2674 57.252 73.2169ZM57.9297 65.2342C57.9302 66.9226 58.516 68.5587 59.5875 69.8637C60.6589 71.1687 62.1496 72.0618 63.8057 72.391C65.4618 72.7202 67.1808 72.4651 68.6698 71.6691C70.1589 70.873 71.3259 69.5854 71.9721 68.0255C72.6183 66.4655 72.7037 64.7298 72.2137 63.114C71.7237 61.4982 70.6887 60.1022 69.285 59.1639C67.8813 58.2255 66.1956 57.8029 64.5152 57.968C62.8348 58.133 61.2636 58.8756 60.0693 60.0691C59.3889 60.7458 58.8494 61.5507 58.4821 62.4373C58.1149 63.3239 57.9271 64.2745 57.9297 65.2342ZM111.055 99.7654C111.055 102.377 110.149 104.908 108.492 106.927C106.835 108.946 104.53 110.328 101.968 110.838C99.4066 111.347 96.7476 110.953 94.4442 109.722C92.1408 108.49 90.3355 106.499 89.336 104.086C88.3365 101.673 88.2045 98.988 88.9626 96.4887C89.7207 93.9893 91.322 91.8302 93.4936 90.3791C95.6651 88.9281 98.2727 88.2748 100.872 88.5308C103.471 88.7867 105.901 89.936 107.748 91.7827C108.8 92.8286 109.633 94.0726 110.201 95.4428C110.769 96.8131 111.059 98.2823 111.055 99.7654ZM107.07 99.7654C107.073 98.8058 106.885 97.8551 106.518 96.9686C106.151 96.082 105.611 95.277 104.931 94.6003C103.736 93.4054 102.163 92.6617 100.481 92.4961C98.7996 92.3305 97.1124 92.7532 95.7072 93.6921C94.3021 94.6311 93.266 96.0282 92.7754 97.6454C92.2849 99.2626 92.3703 101 93.0171 102.561C93.6638 104.123 94.832 105.411 96.3224 106.208C97.8129 107.005 99.5334 107.26 101.191 106.93C102.848 106.6 104.34 105.706 105.412 104.4C106.484 103.093 107.07 101.455 107.07 99.7654Z" fill="white"/>
</svg>
