<svg width="165" height="165" viewBox="0 0 165 165" fill="none" xmlns="http://www.w3.org/2000/svg">
<circle cx="82.5" cy="82.5" r="82" fill="black" stroke="white"/>
<path d="M114.375 78.9582C114.375 98.6144 100.775 116.996 82.5 121.458C64.225 116.996 50.625 98.6144 50.625 78.9582V57.7082L82.5 43.5415L114.375 57.7082V78.9582ZM82.5 114.375C95.7812 110.833 107.292 95.0373 107.292 79.7373V62.3123L82.5 51.2623L57.7083 62.3123V79.7373C57.7083 95.0373 69.2188 110.833 82.5 114.375ZM78.9583 89.5832H86.0417V100.208H96.6667V82.4998H103.75L82.5 64.7915L61.25 82.4998H68.3333V100.208H78.9583V89.5832Z" fill="white"/>
</svg>
