<svg width="34" height="34" viewBox="0 0 34 34" fill="none" xmlns="http://www.w3.org/2000/svg">
<path d="M1.16669 17C1.16669 25.7447 8.25527 32.8333 17 32.8333C25.7448 32.8333 32.8334 25.7447 32.8334 17C32.8334 8.25524 25.7448 1.16666 17 1.16666C8.25527 1.16666 1.16669 8.25524 1.16669 17Z" stroke="black" stroke-width="1.5" stroke-linecap="round" stroke-linejoin="round"/>
<path d="M18.5834 1.24582C18.5834 1.24582 23.3334 7.49999 23.3334 17C23.3334 26.5 18.5834 32.7542 18.5834 32.7542" stroke="black" stroke-width="1.5" stroke-linecap="round" stroke-linejoin="round"/>
<path d="M15.4167 32.7542C15.4167 32.7542 10.6667 26.5 10.6667 17C10.6667 7.49999 15.4167 1.24582 15.4167 1.24582" stroke="black" stroke-width="1.5" stroke-linecap="round" stroke-linejoin="round"/>
<path d="M2.16418 22.5417H31.8359" stroke="black" stroke-width="1.5" stroke-linecap="round" stroke-linejoin="round"/>
<path d="M2.16418 11.4583H31.8359" stroke="black" stroke-width="1.5" stroke-linecap="round" stroke-linejoin="round"/>
</svg>
